<mxfile host="app.diagrams.net" modified="2022-04-03T14:19:07.991Z" agent="5.0 (Macintosh; Intel Mac OS X 10_15_7) AppleWebKit/537.36 (KHTML, like Gecko) Chrome/100.0.4896.60 Safari/537.36" etag="-fV5loztapZvym03C48n" version="17.2.4" type="github">
  <diagram id="sUWh5bS482N0gOO0lix7" name="Page-1">
    <mxGraphModel dx="1796" dy="447" grid="1" gridSize="10" guides="1" tooltips="1" connect="1" arrows="1" fold="1" page="1" pageScale="1" pageWidth="850" pageHeight="1100" math="0" shadow="0">
      <root>
        <mxCell id="0" />
        <mxCell id="1" parent="0" />
        <mxCell id="kgY9Ub-Wu6sqhAckSDvj-1" value="" style="rounded=0;whiteSpace=wrap;html=1;" vertex="1" parent="1">
          <mxGeometry x="260" y="30" width="380" height="660" as="geometry" />
        </mxCell>
        <mxCell id="kgY9Ub-Wu6sqhAckSDvj-2" value="View menu" style="ellipse;whiteSpace=wrap;html=1;" vertex="1" parent="1">
          <mxGeometry x="390" y="40" width="120" height="80" as="geometry" />
        </mxCell>
        <mxCell id="kgY9Ub-Wu6sqhAckSDvj-3" value="T-Low food&lt;br style=&quot;font-size: 12px&quot;&gt;delivery system" style="text;html=1;strokeColor=none;fillColor=none;align=center;verticalAlign=middle;whiteSpace=wrap;rounded=0;fontSize=12;" vertex="1" parent="1">
          <mxGeometry x="402.5" width="95" height="30" as="geometry" />
        </mxCell>
        <mxCell id="kgY9Ub-Wu6sqhAckSDvj-4" value="Customer" style="shape=umlActor;verticalLabelPosition=bottom;verticalAlign=top;html=1;outlineConnect=0;" vertex="1" parent="1">
          <mxGeometry x="-110" y="320" width="30" height="60" as="geometry" />
        </mxCell>
        <mxCell id="kgY9Ub-Wu6sqhAckSDvj-5" value="Restaurant" style="shape=umlActor;verticalLabelPosition=bottom;verticalAlign=top;html=1;outlineConnect=0;" vertex="1" parent="1">
          <mxGeometry x="90" y="330" width="30" height="60" as="geometry" />
        </mxCell>
        <mxCell id="kgY9Ub-Wu6sqhAckSDvj-11" value="&lt;meta charset=&quot;utf-8&quot; style=&quot;font-size: 12px;&quot;&gt;&lt;span lang=&quot;EN-US&quot; class=&quot;TextRun BCX0 SCXW208734774&quot; style=&quot;animation: 0s ease 0s 1 normal none running none; appearance: none; backface-visibility: visible; background: none 0% 0% / auto repeat scroll padding-box border-box rgba(0, 0, 0, 0); border-color: rgb(0, 0, 0); border-collapse: collapse; border-width: 0px; border-style: none; border-spacing: 0px; border-radius: 0px; box-shadow: none; box-sizing: content-box; caption-side: top; clear: none; clip: auto; color: rgb(0, 0, 0); content: normal; cursor: text; direction: ltr; display: inline; empty-cells: show; float: none; font-family: calibri, calibri_embeddedfont, calibri_msfontservice, sans-serif; font-size: 12px; font-style: normal; font-weight: 400; height: auto; letter-spacing: normal; line-height: 18.3458px; list-style: outside none disc; margin: 0px; max-height: none; max-width: none; min-height: 0px; min-width: 0px; opacity: 1; outline: rgb(0, 0, 0) none 0px; overflow: visible; overflow-wrap: break-word; padding: 0px; perspective: none; perspective-origin: 0px 0px; position: static; resize: none; speak: normal; table-layout: auto; text-align: left; text-decoration: none; text-indent: 0px; text-overflow: clip; text-shadow: none; text-transform: none; transform: none; transform-origin: 0px 0px; transform-style: flat; transition: all 0s ease 0s; unicode-bidi: normal; vertical-align: baseline; visibility: visible; width: auto; word-break: normal; word-spacing: 0px; z-index: auto; zoom: 1;&quot;&gt;&lt;span class=&quot;NormalTextRun BCX0 SCXW208734774&quot; style=&quot;font-size: 12px;&quot;&gt;T-Low Service&lt;/span&gt;&lt;/span&gt;" style="shape=umlActor;verticalLabelPosition=bottom;verticalAlign=top;html=1;outlineConnect=0;fontSize=12;" vertex="1" parent="1">
          <mxGeometry x="730" y="270" width="30" height="60" as="geometry" />
        </mxCell>
        <mxCell id="kgY9Ub-Wu6sqhAckSDvj-12" value="Place order" style="ellipse;whiteSpace=wrap;html=1;" vertex="1" parent="1">
          <mxGeometry x="390" y="170" width="120" height="80" as="geometry" />
        </mxCell>
        <mxCell id="kgY9Ub-Wu6sqhAckSDvj-13" value="Order Placed notification" style="ellipse;whiteSpace=wrap;html=1;" vertex="1" parent="1">
          <mxGeometry x="390" y="310" width="120" height="80" as="geometry" />
        </mxCell>
        <mxCell id="kgY9Ub-Wu6sqhAckSDvj-14" value="Receive Order" style="ellipse;whiteSpace=wrap;html=1;" vertex="1" parent="1">
          <mxGeometry x="390" y="450" width="120" height="80" as="geometry" />
        </mxCell>
        <mxCell id="kgY9Ub-Wu6sqhAckSDvj-15" value="Order Received Notification" style="ellipse;whiteSpace=wrap;html=1;" vertex="1" parent="1">
          <mxGeometry x="390" y="590" width="120" height="80" as="geometry" />
        </mxCell>
        <mxCell id="kgY9Ub-Wu6sqhAckSDvj-17" value="" style="endArrow=classic;html=1;rounded=0;exitX=1;exitY=0.3333333333333333;exitDx=0;exitDy=0;exitPerimeter=0;entryX=0;entryY=0.5;entryDx=0;entryDy=0;" edge="1" parent="1" source="kgY9Ub-Wu6sqhAckSDvj-4" target="kgY9Ub-Wu6sqhAckSDvj-2">
          <mxGeometry width="50" height="50" relative="1" as="geometry">
            <mxPoint x="410" y="210" as="sourcePoint" />
            <mxPoint x="460" y="160" as="targetPoint" />
          </mxGeometry>
        </mxCell>
        <mxCell id="kgY9Ub-Wu6sqhAckSDvj-18" value="" style="endArrow=classic;html=1;rounded=0;entryX=0;entryY=0.5;entryDx=0;entryDy=0;exitX=1;exitY=0.3333333333333333;exitDx=0;exitDy=0;exitPerimeter=0;" edge="1" parent="1" source="kgY9Ub-Wu6sqhAckSDvj-4" target="kgY9Ub-Wu6sqhAckSDvj-12">
          <mxGeometry width="50" height="50" relative="1" as="geometry">
            <mxPoint x="130" y="90" as="sourcePoint" />
            <mxPoint x="460" y="160" as="targetPoint" />
          </mxGeometry>
        </mxCell>
        <mxCell id="kgY9Ub-Wu6sqhAckSDvj-22" value="" style="endArrow=classic;html=1;rounded=0;exitX=0;exitY=0.3333333333333333;exitDx=0;exitDy=0;exitPerimeter=0;" edge="1" parent="1" source="kgY9Ub-Wu6sqhAckSDvj-11" target="kgY9Ub-Wu6sqhAckSDvj-13">
          <mxGeometry width="50" height="50" relative="1" as="geometry">
            <mxPoint x="410" y="320" as="sourcePoint" />
            <mxPoint x="460" y="270" as="targetPoint" />
          </mxGeometry>
        </mxCell>
        <mxCell id="kgY9Ub-Wu6sqhAckSDvj-25" value="" style="endArrow=classic;html=1;rounded=0;exitX=1;exitY=0.3333333333333333;exitDx=0;exitDy=0;exitPerimeter=0;entryX=0;entryY=0.5;entryDx=0;entryDy=0;" edge="1" parent="1" source="kgY9Ub-Wu6sqhAckSDvj-5" target="kgY9Ub-Wu6sqhAckSDvj-13">
          <mxGeometry width="50" height="50" relative="1" as="geometry">
            <mxPoint x="410" y="310" as="sourcePoint" />
            <mxPoint x="460" y="260" as="targetPoint" />
          </mxGeometry>
        </mxCell>
        <mxCell id="kgY9Ub-Wu6sqhAckSDvj-26" value="" style="endArrow=classic;html=1;rounded=0;exitX=1;exitY=0.3333333333333333;exitDx=0;exitDy=0;exitPerimeter=0;" edge="1" parent="1" source="kgY9Ub-Wu6sqhAckSDvj-5" target="kgY9Ub-Wu6sqhAckSDvj-14">
          <mxGeometry width="50" height="50" relative="1" as="geometry">
            <mxPoint x="410" y="470" as="sourcePoint" />
            <mxPoint x="460" y="420" as="targetPoint" />
          </mxGeometry>
        </mxCell>
        <mxCell id="kgY9Ub-Wu6sqhAckSDvj-27" value="" style="endArrow=classic;html=1;rounded=0;entryX=0;entryY=0.5;entryDx=0;entryDy=0;exitX=1;exitY=0.3333333333333333;exitDx=0;exitDy=0;exitPerimeter=0;" edge="1" parent="1" source="kgY9Ub-Wu6sqhAckSDvj-4" target="kgY9Ub-Wu6sqhAckSDvj-15">
          <mxGeometry width="50" height="50" relative="1" as="geometry">
            <mxPoint x="-80" y="350" as="sourcePoint" />
            <mxPoint x="460" y="480" as="targetPoint" />
            <Array as="points">
              <mxPoint x="80" y="460" />
            </Array>
          </mxGeometry>
        </mxCell>
        <mxCell id="kgY9Ub-Wu6sqhAckSDvj-30" value="" style="endArrow=classic;html=1;rounded=0;exitX=0;exitY=0.3333333333333333;exitDx=0;exitDy=0;exitPerimeter=0;entryX=0.979;entryY=0.406;entryDx=0;entryDy=0;entryPerimeter=0;" edge="1" parent="1" source="kgY9Ub-Wu6sqhAckSDvj-11" target="kgY9Ub-Wu6sqhAckSDvj-15">
          <mxGeometry width="50" height="50" relative="1" as="geometry">
            <mxPoint x="460" y="520" as="sourcePoint" />
            <mxPoint x="510" y="470" as="targetPoint" />
          </mxGeometry>
        </mxCell>
        <mxCell id="kgY9Ub-Wu6sqhAckSDvj-32" value="" style="html=1;labelBackgroundColor=#ffffff;startArrow=none;startFill=0;startSize=6;endArrow=classic;endFill=1;endSize=6;jettySize=auto;orthogonalLoop=1;strokeWidth=1;dashed=1;fontSize=14;rounded=0;entryX=0.5;entryY=0;entryDx=0;entryDy=0;" edge="1" parent="1" source="kgY9Ub-Wu6sqhAckSDvj-2" target="kgY9Ub-Wu6sqhAckSDvj-12">
          <mxGeometry width="60" height="60" relative="1" as="geometry">
            <mxPoint x="340" y="240" as="sourcePoint" />
            <mxPoint x="400" y="180" as="targetPoint" />
          </mxGeometry>
        </mxCell>
        <mxCell id="kgY9Ub-Wu6sqhAckSDvj-33" value="&lt;font style=&quot;font-size: 12px&quot;&gt;&amp;lt;&amp;lt;include&amp;gt;&amp;gt;&lt;/font&gt;" style="edgeLabel;html=1;align=center;verticalAlign=middle;resizable=0;points=[];fontSize=13;" vertex="1" connectable="0" parent="kgY9Ub-Wu6sqhAckSDvj-32">
          <mxGeometry x="-0.1" y="-2" relative="1" as="geometry">
            <mxPoint as="offset" />
          </mxGeometry>
        </mxCell>
        <mxCell id="kgY9Ub-Wu6sqhAckSDvj-37" value="" style="html=1;labelBackgroundColor=#ffffff;startArrow=none;startFill=0;startSize=6;endArrow=classic;endFill=1;endSize=6;jettySize=auto;orthogonalLoop=1;strokeWidth=1;dashed=1;fontSize=14;rounded=0;" edge="1" parent="1">
          <mxGeometry width="60" height="60" relative="1" as="geometry">
            <mxPoint x="449.5" y="250" as="sourcePoint" />
            <mxPoint x="450" y="310" as="targetPoint" />
          </mxGeometry>
        </mxCell>
        <mxCell id="kgY9Ub-Wu6sqhAckSDvj-38" value="&lt;font style=&quot;font-size: 12px&quot;&gt;&amp;lt;&amp;lt;include&amp;gt;&amp;gt;&lt;/font&gt;" style="edgeLabel;html=1;align=center;verticalAlign=middle;resizable=0;points=[];fontSize=13;" vertex="1" connectable="0" parent="kgY9Ub-Wu6sqhAckSDvj-37">
          <mxGeometry x="-0.1" y="-2" relative="1" as="geometry">
            <mxPoint as="offset" />
          </mxGeometry>
        </mxCell>
        <mxCell id="kgY9Ub-Wu6sqhAckSDvj-39" value="" style="html=1;labelBackgroundColor=#ffffff;startArrow=none;startFill=0;startSize=6;endArrow=classic;endFill=1;endSize=6;jettySize=auto;orthogonalLoop=1;strokeWidth=1;dashed=1;fontSize=14;rounded=0;" edge="1" parent="1" target="kgY9Ub-Wu6sqhAckSDvj-14">
          <mxGeometry width="60" height="60" relative="1" as="geometry">
            <mxPoint x="450.5" y="390" as="sourcePoint" />
            <mxPoint x="451" y="460" as="targetPoint" />
          </mxGeometry>
        </mxCell>
        <mxCell id="kgY9Ub-Wu6sqhAckSDvj-40" value="&lt;font style=&quot;font-size: 12px&quot;&gt;&amp;lt;&amp;lt;include&amp;gt;&amp;gt;&lt;/font&gt;" style="edgeLabel;html=1;align=center;verticalAlign=middle;resizable=0;points=[];fontSize=13;" vertex="1" connectable="0" parent="kgY9Ub-Wu6sqhAckSDvj-39">
          <mxGeometry x="-0.1" y="-2" relative="1" as="geometry">
            <mxPoint as="offset" />
          </mxGeometry>
        </mxCell>
        <mxCell id="kgY9Ub-Wu6sqhAckSDvj-41" value="" style="html=1;labelBackgroundColor=#ffffff;startArrow=none;startFill=0;startSize=6;endArrow=classic;endFill=1;endSize=6;jettySize=auto;orthogonalLoop=1;strokeWidth=1;dashed=1;fontSize=14;rounded=0;" edge="1" parent="1">
          <mxGeometry width="60" height="60" relative="1" as="geometry">
            <mxPoint x="450" y="530" as="sourcePoint" />
            <mxPoint x="449.5" y="590" as="targetPoint" />
          </mxGeometry>
        </mxCell>
        <mxCell id="kgY9Ub-Wu6sqhAckSDvj-42" value="&lt;font style=&quot;font-size: 12px&quot;&gt;&amp;lt;&amp;lt;include&amp;gt;&amp;gt;&lt;/font&gt;" style="edgeLabel;html=1;align=center;verticalAlign=middle;resizable=0;points=[];fontSize=13;" vertex="1" connectable="0" parent="kgY9Ub-Wu6sqhAckSDvj-41">
          <mxGeometry x="-0.1" y="-2" relative="1" as="geometry">
            <mxPoint as="offset" />
          </mxGeometry>
        </mxCell>
        <mxCell id="kgY9Ub-Wu6sqhAckSDvj-43" value="" style="endArrow=classic;html=1;rounded=0;fontSize=12;exitX=0;exitY=0.3333333333333333;exitDx=0;exitDy=0;exitPerimeter=0;entryX=1;entryY=0.5;entryDx=0;entryDy=0;" edge="1" parent="1" source="kgY9Ub-Wu6sqhAckSDvj-11" target="kgY9Ub-Wu6sqhAckSDvj-2">
          <mxGeometry width="50" height="50" relative="1" as="geometry">
            <mxPoint x="630" y="320" as="sourcePoint" />
            <mxPoint x="680" y="270" as="targetPoint" />
          </mxGeometry>
        </mxCell>
      </root>
    </mxGraphModel>
  </diagram>
</mxfile>
